<?xml version="1.0" encoding="UTF-8"?>
<!-- Created with Inkscape (http://www.inkscape.org/) -->
<svg width="50mm" height="54mm" version="1.1" viewBox="0 0 50 54" xmlns="http://www.w3.org/2000/svg" xmlns:cc="http://creativecommons.org/ns#" xmlns:dc="http://purl.org/dc/elements/1.1/" xmlns:rdf="http://www.w3.org/1999/02/22-rdf-syntax-ns#">
 <metadata>
  <rdf:RDF>
   <cc:Work rdf:about="">
    <dc:format>image/svg+xml</dc:format>
    <dc:type rdf:resource="http://purl.org/dc/dcmitype/StillImage"/>
    <dc:title/>
   </cc:Work>
  </rdf:RDF>
 </metadata>
 <g transform="translate(-139.85 -131.99)">
  <g transform="matrix(1.0137 0 0 1.0111 -1.9113 -2.0615)">
   <g>
    <ellipse transform="rotate(-90)" cx="-156.87" cy="164.51" rx="24.285" ry="24.663"/>
    <rect x="139.95" y="155.56" width="49.137" height="30.427"/>
   </g>
   <g transform="translate(4.7304 53.946)" fill="#fff" stroke="#fff">
    <g transform="matrix(.69853 0 0 .69853 119.99 36.483)">
     <circle cx="43.76" cy="90.28" r="10.5" stroke-width=".34727"/>
     <g transform="matrix(1.317 1.317 -1.317 1.317 81.005 -108.71)" stroke-width=".19351">
      <rect transform="rotate(-90)" x="-80.76" y="70.301" width="8" height="2"/>
      <rect x="70.301" y="78.76" width="8" height="2"/>
     </g>
    </g>
    <path d="m148.6 113.51-3.5e-4 6e-3c-1.7e-4 5.4016 4.977 9.7806 11.117 9.7806 6.1398-1e-5 11.117-4.379 11.117-9.7806l-3.4e-4 -6e-3h-1.6349l3.4e-4 6e-3c1.4e-4 4.6072-4.2451 8.3422-9.4819 8.3422-5.237 1.3e-4 -9.4824-3.7349-9.4822-8.3422l3.4e-4 -6e-3z" stroke-width=".8"/>
   </g>
  </g>
 </g>
</svg>
